# xmcd
#
# Track frame offsets: 
#        150
#        14680
#        27821
#        39544
#        56156
#        73703
#        93517
#        106652
#        121755
#        138467
#        151597
#        167818
#        179575
#        197689
#        218331
#
# Disc length: 3139 seconds
#
# Revision: 0
# Processed by: cddbd v1.5.2PL0 Copyright (c) Steve Scherf et al.
# Submitted via: ExactAudioCopyFreeDBPlugin 1.0
#
DISCID=c60c410f
DTITLE=Craig Duncan - Bluegrass Mountain Memories
DYEAR=2013
DGENRE=Bluegrass
TTITLE0=Ragtime Annie
TTITLE1=Orange Blossom Special
TTITLE2=Home Sweet Home
TTITLE3=Lonesome John
TTITLE4=Maiden's Prayer
TTITLE5=Misissippi Sawyer - Forked Deer
TTITLE6=Draggin' The Bow
TTITLE7=Eighth Of January (Battle Of New Orleans)
TTITLE8=Fisher's Hornpipe
TTITLE9=Say Old Man (Can ou Play The Fiddle)
TTITLE10=Back Up And Push
TTITLE11=Dueling Banjo - Dulcimer
TTITLE12=Festival Waltz
TTITLE13=Liza Jane - Goodbye Liza Jane
TTITLE14=Ashokan Farewell
EXTD=
EXTT0=
EXTT1=
EXTT2=
EXTT3=
EXTT4=
EXTT5=
EXTT6=
EXTT7=
EXTT8=
EXTT9=
EXTT10=
EXTT11=
EXTT12=
EXTT13=
EXTT14=
PLAYORDER=
